# xmcd CD database file
#
# Track frame offsets:
#	150
#	16983
#	28728
#	44371
#	55570
#	69786
#	84516
#	95444
#	110812
#	127302
#	143271
#	159218
#	175966
#	191485
#	208002
#	224828
#	241358
#	257655
#	271839
#	286863
#	305108
#	318327
#	331869
#
# Disc length: 4635 seconds
#
# Revision: 0
# Processed by: cddbd v1.5.2PL0 Copyright (c) Steve Scherf et al.
# Submitted via: CDex 1.51
#
DISCID=4a121917
DTITLE=Various Artist - 01
DYEAR=2007
DGENRE=Country
TTITLE0=I Feel A Heartache-Danni Leigh
TTITLE1=I'll Always Be Loving You-George Strait
TTITLE2=Achy Breaky Heart-Billy Ray Cyrus
TTITLE3=Born In The Dark-Chet Hinesley
TTITLE4=What The Cowgirls Do-Vince Gill
TTITLE5=Tattoos Of Life-Steve Wariner
TTITLE6=Mixed Up Mess Of A Heart-Danni Leigh
TTITLE7=I Can't Be Bothered lyrics-Miranda Lambert
TTITLE8=Good Directions-Billy Currington
TTITLE9=One Step Forward lyrics-Desert Rose Band
TTITLE10=Let's Put the Western Back in the Country-Joni Harms
TTITLE11=Brand New Girlfriend-Steve Holy
TTITLE12=Wrapped Around Lyrics-Brad Paisley
TTITLE13=Rose Garden-Martina McBride
TTITLE14=love never hurt nobody
TTITLE15=Adalida-George Strait
TTITLE16=You Need A Man Around Here-Brad Paisley
TTITLE17=No One Needs To Know-Shania Twain
TTITLE18=98.6 Degrees
TTITLE19=If You Ever Feel Like Lovin' Me Again-Clay Walker
TTITLE20=Too Many Pockets-Darryl Worley
TTITLE21=Come On Ove-Shania Twain
TTITLE22=I Ain't No Quitter-Shania Twain  
EXTD=YEAR: 2007
EXTT0=
EXTT1=
EXTT2=
EXTT3=
EXTT4=
EXTT5=
EXTT6=
EXTT7=
EXTT8=
EXTT9=
EXTT10=
EXTT11=
EXTT12=
EXTT13=
EXTT14=
EXTT15=
EXTT16=
EXTT17=
EXTT18=
EXTT19=
EXTT20=
EXTT21=
EXTT22=
PLAYORDER=
